# xmcd CD database file
#
# Track frame offsets:
#	150
#	18955
#	43686
#	60375
#	79951
#
# Disc length: 1410 seconds
#
# Revision: 0
# Processed by: cddbd v1.5.2PL0 Copyright (c) Steve Scherf et al.
# Submitted via: WildFire CD Ripper 1.70beta2
#
DISCID=34058005
DTITLE=August Burns Red - Looks Fragile After All
DYEAR=2007
DGENRE=
TTITLE0=Background Music To Her Awakening
TTITLE1=Missing This Opportunity
TTITLE2=Glory Thrives
TTITLE3=You Should Be Taking Flight Right Now
TTITLE4=Accidental Shot Heard 'Round The World
EXTD=YEAR: 2007
EXTT0=
EXTT1=
EXTT2=
EXTT3=
EXTT4=
PLAYORDER=
